# xmcd
#
# Track frame offsets: 
#        4649
#        12739
#        27699
#        43537
#        57876
#        75986
#        93384
#        101939
#        117539
#        140007
#        160599
#        178313
#
# Disc length: 2600 seconds
#
# Revision: 3
# Processed by: cddbd v1.5.2PL0 Copyright (c) Steve Scherf et al.
# Submitted via: ExactAudioCopy v0.99pb4
#
DISCID=ab09eb0c
DTITLE=The Charlie Daniels Band - Country Stars n' Stripes
DYEAR=2005
DGENRE=Country
TTITLE0=Star Spangled Banner
TTITLE1=In America
TTITLE2=This Ain't No Rag, It's a Flag
TTITLE3=The Intimidator
TTITLE4=God Bless the Mother
TTITLE5=My Beautiful America
TTITLE6=How Great Thou Art
TTITLE7=Little Folks
TTITLE8=Last Fallen Hero
TTITLE9=America, I Believe in You
TTITLE10=The South's Gonna Do It (Again)
TTITLE11=The Devil Went Down to Georgia
EXTD=YEAR: 2005
EXTT0=
EXTT1=
EXTT2=
EXTT3=
EXTT4=
EXTT5=
EXTT6=
EXTT7=
EXTT8=
EXTT9=
EXTT10=
EXTT11=
PLAYORDER=
